<svg width="169" height="169" xmlns="http://www.w3.org/2000/svg" xmlns:xlink="http://www.w3.org/1999/xlink" xml:space="preserve" overflow="hidden"><g transform="translate(-494 -389)"><path d="M578.474 406.604C541.547 406.603 511.612 436.537 511.611 473.463 511.61 510.389 541.544 540.324 578.47 540.325 615.396 540.326 645.331 510.393 645.332 473.467 645.332 473.464 645.332 473.462 645.332 473.46 645.346 436.55 615.436 406.618 578.526 406.604 578.509 406.604 578.491 406.604 578.474 406.604ZM608.348 494.923 599.931 503.339 578.474 481.878 557.023 503.336 548.606 494.919 570.05 473.46 548.598 452.002 557.023 443.585 578.474 465.05 599.931 443.585 608.348 452.002 586.89 473.46Z"/></g></svg>